<mxfile host="app.diagrams.net" agent="Mozilla/5.0 (Windows NT 10.0; Win64; x64) AppleWebKit/537.36 (KHTML, like Gecko) Chrome/137.0.0.0 Safari/537.36" version="27.1.6" pages="2">
  <diagram name="User Service Class Diagram" id="TsXZLVtFr8LwppkSb1QJ">
    <mxGraphModel dx="1281" dy="715" grid="1" gridSize="10" guides="1" tooltips="1" connect="1" arrows="1" fold="1" page="1" pageScale="1" pageWidth="850" pageHeight="1100" math="0" shadow="0">
      <root>
        <mxCell id="0" />
        <mxCell id="1" parent="0" />
        <mxCell id="2Fayb-u_bdMIBWR4WJhT-7" value="&lt;span style=&quot;font-size: 18px; font-weight: 400;&quot;&gt;User&lt;/span&gt;" style="swimlane;fontStyle=1;align=center;verticalAlign=top;childLayout=stackLayout;horizontal=1;startSize=40;horizontalStack=0;resizeParent=1;resizeParentMax=0;resizeLast=0;collapsible=1;marginBottom=0;whiteSpace=wrap;html=1;" parent="1" vertex="1">
          <mxGeometry x="30" y="20" width="200" height="180" as="geometry" />
        </mxCell>
        <mxCell id="2Fayb-u_bdMIBWR4WJhT-10" value="&lt;div style=&quot;&quot;&gt;&lt;font style=&quot;font-size: 16px;&quot; face=&quot;Verdana&quot;&gt;- id: Long&amp;nbsp; &amp;nbsp; &amp;nbsp; &amp;nbsp; &amp;nbsp;&amp;nbsp;&lt;/font&gt;&lt;/div&gt;&lt;div style=&quot;&quot;&gt;&lt;font style=&quot;font-size: 16px;&quot; face=&quot;Verdana&quot;&gt;&amp;nbsp; &amp;nbsp; - name: String&amp;nbsp; &amp;nbsp; &amp;nbsp;&amp;nbsp;&lt;/font&gt;&lt;/div&gt;&lt;div style=&quot;&quot;&gt;&lt;font style=&quot;font-size: 16px;&quot; face=&quot;Verdana&quot;&gt;&amp;nbsp;- email: String&amp;nbsp; &amp;nbsp; &amp;nbsp;&lt;/font&gt;&lt;/div&gt;&lt;div style=&quot;&quot;&gt;&lt;font style=&quot;font-size: 16px;&quot; face=&quot;Verdana&quot;&gt;&amp;nbsp;- password: String&amp;nbsp;&lt;/font&gt;&lt;span style=&quot;font-size: 16px; font-family: Verdana; background-color: transparent; color: light-dark(rgb(0, 0, 0), rgb(255, 255, 255));&quot;&gt;&amp;nbsp;&lt;/span&gt;&lt;/div&gt;&lt;div style=&quot;&quot;&gt;&lt;font style=&quot;font-size: 16px;&quot; face=&quot;Verdana&quot;&gt;&amp;nbsp; &amp;nbsp;- isRenter: boolean&amp;nbsp;&lt;/font&gt;&lt;/div&gt;&lt;div style=&quot;&quot;&gt;&lt;span style=&quot;font-family: Verdana; background-color: transparent; color: light-dark(rgb(0, 0, 0), rgb(255, 255, 255));&quot;&gt;&lt;font style=&quot;font-size: 16px;&quot;&gt;- role: Role&amp;nbsp;&amp;nbsp;&lt;/font&gt;&lt;/span&gt;&lt;/div&gt;" style="text;strokeColor=none;fillColor=none;align=center;verticalAlign=top;spacingLeft=4;spacingRight=4;overflow=hidden;rotatable=0;points=[[0,0.5],[1,0.5]];portConstraint=eastwest;whiteSpace=wrap;html=1;" parent="2Fayb-u_bdMIBWR4WJhT-7" vertex="1">
          <mxGeometry y="40" width="200" height="140" as="geometry" />
        </mxCell>
        <mxCell id="2Fayb-u_bdMIBWR4WJhT-11" value="&lt;span style=&quot;font-size: 18px; font-weight: 400;&quot;&gt;Role&lt;/span&gt;" style="swimlane;fontStyle=1;align=center;verticalAlign=top;childLayout=stackLayout;horizontal=1;startSize=40;horizontalStack=0;resizeParent=1;resizeParentMax=0;resizeLast=0;collapsible=1;marginBottom=0;whiteSpace=wrap;html=1;" parent="1" vertex="1">
          <mxGeometry x="330" y="10" width="195" height="170" as="geometry">
            <mxRectangle x="290" y="60" width="80" height="40" as="alternateBounds" />
          </mxGeometry>
        </mxCell>
        <mxCell id="2Fayb-u_bdMIBWR4WJhT-12" value="&lt;div style=&quot;&quot;&gt;&lt;div&gt;&lt;font style=&quot;font-size: 19px;&quot;&gt;&amp;nbsp; &amp;nbsp; &amp;nbsp; &lt;/font&gt;&lt;font style=&quot;font-size: 17px;&quot;&gt;&amp;nbsp; &amp;nbsp; &amp;nbsp; + USER&amp;nbsp; &amp;nbsp; &amp;nbsp; &amp;nbsp; &amp;nbsp; &amp;nbsp; &amp;nbsp; &amp;nbsp;&lt;/font&gt;&lt;/div&gt;&lt;div&gt;&lt;font style=&quot;font-size: 17px;&quot;&gt;&amp;nbsp; &amp;nbsp; &amp;nbsp; &amp;nbsp; &amp;nbsp; &amp;nbsp; + RENTER&amp;nbsp; &amp;nbsp; &amp;nbsp; &amp;nbsp; &amp;nbsp; &amp;nbsp;&lt;/font&gt;&lt;/div&gt;&lt;div&gt;&lt;span style=&quot;background-color: transparent; color: light-dark(rgb(0, 0, 0), rgb(255, 255, 255));&quot;&gt;&lt;font style=&quot;font-size: 17px;&quot;&gt;+ ADMIN&lt;/font&gt;&lt;/span&gt;&lt;/div&gt;&lt;/div&gt;" style="text;strokeColor=none;fillColor=none;align=center;verticalAlign=top;spacingLeft=4;spacingRight=4;overflow=hidden;rotatable=0;points=[[0,0.5],[1,0.5]];portConstraint=eastwest;whiteSpace=wrap;html=1;" parent="2Fayb-u_bdMIBWR4WJhT-11" vertex="1">
          <mxGeometry y="40" width="195" height="130" as="geometry" />
        </mxCell>
        <mxCell id="2Fayb-u_bdMIBWR4WJhT-42" style="edgeStyle=orthogonalEdgeStyle;rounded=0;orthogonalLoop=1;jettySize=auto;html=1;entryX=0.442;entryY=0.977;entryDx=0;entryDy=0;entryPerimeter=0;" parent="1" source="2Fayb-u_bdMIBWR4WJhT-15" target="2Fayb-u_bdMIBWR4WJhT-10" edge="1">
          <mxGeometry relative="1" as="geometry">
            <mxPoint x="130" y="250" as="targetPoint" />
            <Array as="points">
              <mxPoint x="240" y="375" />
              <mxPoint x="240" y="250" />
              <mxPoint x="118" y="250" />
            </Array>
          </mxGeometry>
        </mxCell>
        <mxCell id="2Fayb-u_bdMIBWR4WJhT-15" value="&lt;span style=&quot;font-size: 18px; font-weight: 400;&quot;&gt;UserDTO&lt;/span&gt;" style="swimlane;fontStyle=1;align=center;verticalAlign=top;childLayout=stackLayout;horizontal=1;startSize=40;horizontalStack=0;resizeParent=1;resizeParentMax=0;resizeLast=0;collapsible=1;marginBottom=0;whiteSpace=wrap;html=1;" parent="1" vertex="1">
          <mxGeometry x="490" y="280" width="200" height="190" as="geometry" />
        </mxCell>
        <mxCell id="2Fayb-u_bdMIBWR4WJhT-16" value="&lt;div style=&quot;&quot;&gt;&lt;font style=&quot;font-size: 16px;&quot; face=&quot;Verdana&quot;&gt;- id: Long&amp;nbsp; &amp;nbsp; &amp;nbsp; &amp;nbsp; &amp;nbsp;&amp;nbsp;&lt;/font&gt;&lt;/div&gt;&lt;div style=&quot;&quot;&gt;&lt;font style=&quot;font-size: 16px;&quot; face=&quot;Verdana&quot;&gt;&amp;nbsp; &amp;nbsp; - name: String&amp;nbsp; &amp;nbsp; &amp;nbsp;&amp;nbsp;&lt;/font&gt;&lt;/div&gt;&lt;div style=&quot;&quot;&gt;&lt;font style=&quot;font-size: 16px;&quot; face=&quot;Verdana&quot;&gt;&amp;nbsp;- email: String&amp;nbsp; &amp;nbsp; &amp;nbsp;&lt;/font&gt;&lt;/div&gt;&lt;div style=&quot;&quot;&gt;&lt;font style=&quot;font-size: 16px;&quot; face=&quot;Verdana&quot;&gt;&amp;nbsp;- password: String&amp;nbsp;&lt;/font&gt;&lt;span style=&quot;font-size: 16px; font-family: Verdana; background-color: transparent; color: light-dark(rgb(0, 0, 0), rgb(255, 255, 255));&quot;&gt;&amp;nbsp;&lt;/span&gt;&lt;/div&gt;&lt;div style=&quot;&quot;&gt;&lt;font style=&quot;font-size: 16px;&quot; face=&quot;Verdana&quot;&gt;&amp;nbsp; &amp;nbsp;- isRenter: boolean&amp;nbsp;&lt;/font&gt;&lt;/div&gt;&lt;div style=&quot;&quot;&gt;&lt;span style=&quot;font-family: Verdana; background-color: transparent; color: light-dark(rgb(0, 0, 0), rgb(255, 255, 255));&quot;&gt;&lt;font style=&quot;font-size: 16px;&quot;&gt;- role: Role&amp;nbsp;&amp;nbsp;&lt;/font&gt;&lt;/span&gt;&lt;/div&gt;" style="text;strokeColor=none;fillColor=none;align=center;verticalAlign=top;spacingLeft=4;spacingRight=4;overflow=hidden;rotatable=0;points=[[0,0.5],[1,0.5]];portConstraint=eastwest;whiteSpace=wrap;html=1;" parent="2Fayb-u_bdMIBWR4WJhT-15" vertex="1">
          <mxGeometry y="40" width="200" height="150" as="geometry" />
        </mxCell>
        <mxCell id="2Fayb-u_bdMIBWR4WJhT-17" value="&lt;span style=&quot;font-size: 18px; font-weight: 400;&quot;&gt;UserRepository&lt;/span&gt;" style="swimlane;fontStyle=1;align=center;verticalAlign=top;childLayout=stackLayout;horizontal=1;startSize=40;horizontalStack=0;resizeParent=1;resizeParentMax=0;resizeLast=0;collapsible=1;marginBottom=0;whiteSpace=wrap;html=1;" parent="1" vertex="1">
          <mxGeometry x="500" y="1100" width="340" height="90" as="geometry" />
        </mxCell>
        <mxCell id="2Fayb-u_bdMIBWR4WJhT-18" value="&lt;div style=&quot;&quot;&gt;&lt;font face=&quot;Verdana&quot;&gt;&lt;span style=&quot;font-size: 16px;&quot;&gt;+findByEmail(email):Optional&amp;lt;User&amp;gt;&lt;/span&gt;&lt;/font&gt;&lt;/div&gt;" style="text;strokeColor=none;fillColor=none;align=center;verticalAlign=top;spacingLeft=4;spacingRight=4;overflow=hidden;rotatable=0;points=[[0,0.5],[1,0.5]];portConstraint=eastwest;whiteSpace=wrap;html=1;" parent="2Fayb-u_bdMIBWR4WJhT-17" vertex="1">
          <mxGeometry y="40" width="340" height="50" as="geometry" />
        </mxCell>
        <mxCell id="2Fayb-u_bdMIBWR4WJhT-19" value="&lt;span style=&quot;font-size: 18px; font-weight: 400;&quot;&gt;UserService&lt;/span&gt;" style="swimlane;fontStyle=1;align=center;verticalAlign=top;childLayout=stackLayout;horizontal=1;startSize=40;horizontalStack=0;resizeParent=1;resizeParentMax=0;resizeLast=0;collapsible=1;marginBottom=0;whiteSpace=wrap;html=1;" parent="1" vertex="1">
          <mxGeometry x="750" y="550" width="360" height="150" as="geometry" />
        </mxCell>
        <mxCell id="2Fayb-u_bdMIBWR4WJhT-20" value="&lt;div&gt;&lt;font style=&quot;font-size: 18px;&quot;&gt;+registerUser(userDTO):UserDTO&amp;nbsp;&lt;/font&gt;&lt;/div&gt;&lt;div&gt;&lt;font style=&quot;font-size: 18px;&quot;&gt;&amp;nbsp;+loginUser(authRequest):AuthResponse&amp;nbsp;&lt;/font&gt;&lt;/div&gt;&lt;div&gt;&lt;font style=&quot;font-size: 18px;&quot;&gt;&amp;nbsp;+getProfile(email):UserDTO&amp;nbsp; &amp;nbsp; &amp;nbsp; &amp;nbsp; &amp;nbsp;&amp;nbsp;&lt;/font&gt;&lt;/div&gt;&lt;div style=&quot;&quot;&gt;&lt;font style=&quot;font-size: 18px;&quot;&gt;&lt;span style=&quot;background-color: transparent; color: light-dark(rgb(0, 0, 0), rgb(255, 255, 255));&quot;&gt;+updateUser(id, userDTO):UserDTO&lt;/span&gt;&lt;span style=&quot;background-color: transparent; color: light-dark(rgb(0, 0, 0), rgb(255, 255, 255)); font-family: Verdana;&quot;&gt;&amp;nbsp;&lt;/span&gt;&lt;/font&gt;&lt;/div&gt;" style="text;strokeColor=none;fillColor=none;align=center;verticalAlign=top;spacingLeft=4;spacingRight=4;overflow=hidden;rotatable=0;points=[[0,0.5],[1,0.5]];portConstraint=eastwest;whiteSpace=wrap;html=1;" parent="2Fayb-u_bdMIBWR4WJhT-19" vertex="1">
          <mxGeometry y="40" width="360" height="110" as="geometry" />
        </mxCell>
        <mxCell id="2Fayb-u_bdMIBWR4WJhT-22" value="&lt;span style=&quot;font-size: 18px; font-weight: 400;&quot;&gt;UserServiceImpl&lt;/span&gt;" style="swimlane;fontStyle=1;align=center;verticalAlign=top;childLayout=stackLayout;horizontal=1;startSize=40;horizontalStack=0;resizeParent=1;resizeParentMax=0;resizeLast=0;collapsible=1;marginBottom=0;whiteSpace=wrap;html=1;" parent="1" vertex="1">
          <mxGeometry x="750" y="820" width="360" height="150" as="geometry" />
        </mxCell>
        <mxCell id="2Fayb-u_bdMIBWR4WJhT-23" value="&lt;div&gt;&amp;nbsp;&lt;font style=&quot;font-size: 18px;&quot;&gt;+registerUser(userDTO):UserDTO&amp;nbsp;&lt;/font&gt;&lt;/div&gt;&lt;div&gt;&lt;font style=&quot;font-size: 18px;&quot;&gt;&amp;nbsp;+loginUser(authRequest):AuthResponse&amp;nbsp;&lt;/font&gt;&lt;/div&gt;&lt;div&gt;&lt;font style=&quot;font-size: 18px;&quot;&gt;&amp;nbsp;+getProfile(email):UserDTO&amp;nbsp; &amp;nbsp; &amp;nbsp; &amp;nbsp; &amp;nbsp;&amp;nbsp;&lt;/font&gt;&lt;/div&gt;&lt;div style=&quot;&quot;&gt;&lt;span style=&quot;background-color: transparent; color: light-dark(rgb(0, 0, 0), rgb(255, 255, 255));&quot;&gt;&lt;font style=&quot;font-size: 18px;&quot;&gt;+updateUser(id, userDTO):UserDTO&lt;/font&gt;&lt;/span&gt;&lt;span style=&quot;font-size: 16px; background-color: transparent; color: light-dark(rgb(0, 0, 0), rgb(255, 255, 255)); font-family: Verdana;&quot;&gt;&amp;nbsp;&amp;nbsp;&lt;/span&gt;&lt;/div&gt;" style="text;strokeColor=none;fillColor=none;align=center;verticalAlign=top;spacingLeft=4;spacingRight=4;overflow=hidden;rotatable=0;points=[[0,0.5],[1,0.5]];portConstraint=eastwest;whiteSpace=wrap;html=1;" parent="2Fayb-u_bdMIBWR4WJhT-22" vertex="1">
          <mxGeometry y="40" width="360" height="110" as="geometry" />
        </mxCell>
        <mxCell id="2Fayb-u_bdMIBWR4WJhT-24" value="&lt;span style=&quot;font-size: 18px; font-weight: 400;&quot;&gt;AuthRequest&lt;/span&gt;" style="swimlane;fontStyle=1;align=center;verticalAlign=top;childLayout=stackLayout;horizontal=1;startSize=40;horizontalStack=0;resizeParent=1;resizeParentMax=0;resizeLast=0;collapsible=1;marginBottom=0;whiteSpace=wrap;html=1;" parent="1" vertex="1">
          <mxGeometry x="1750" y="410" width="270" height="150" as="geometry" />
        </mxCell>
        <mxCell id="2Fayb-u_bdMIBWR4WJhT-25" value="&lt;div&gt;&lt;font style=&quot;font-size: 22px;&quot;&gt;- email: String&amp;nbsp; &amp;nbsp; &amp;nbsp; &amp;nbsp; &amp;nbsp;&lt;/font&gt;&lt;/div&gt;&lt;div&gt;&lt;span style=&quot;background-color: transparent;&quot;&gt;&lt;font style=&quot;font-size: 22px;&quot;&gt;&amp;nbsp;- password: String&amp;nbsp;&lt;/font&gt;&amp;nbsp;&lt;/span&gt;&lt;span style=&quot;background-color: transparent; color: light-dark(rgb(0, 0, 0), rgb(255, 255, 255)); font-family: Verdana; font-size: 16px;&quot;&gt;&amp;nbsp;&lt;/span&gt;&lt;/div&gt;" style="text;strokeColor=none;fillColor=none;align=center;verticalAlign=top;spacingLeft=4;spacingRight=4;overflow=hidden;rotatable=0;points=[[0,0.5],[1,0.5]];portConstraint=eastwest;whiteSpace=wrap;html=1;" parent="2Fayb-u_bdMIBWR4WJhT-24" vertex="1">
          <mxGeometry y="40" width="270" height="110" as="geometry" />
        </mxCell>
        <mxCell id="2Fayb-u_bdMIBWR4WJhT-26" value="&lt;span style=&quot;font-size: 18px; font-weight: 400;&quot;&gt;AuthResponse&lt;/span&gt;" style="swimlane;fontStyle=1;align=center;verticalAlign=top;childLayout=stackLayout;horizontal=1;startSize=40;horizontalStack=0;resizeParent=1;resizeParentMax=0;resizeLast=0;collapsible=1;marginBottom=0;whiteSpace=wrap;html=1;" parent="1" vertex="1">
          <mxGeometry x="1750" y="190" width="270" height="140" as="geometry" />
        </mxCell>
        <mxCell id="2Fayb-u_bdMIBWR4WJhT-27" value="&lt;div&gt;&lt;span style=&quot;font-size: 22px;&quot;&gt;&amp;nbsp; &amp;nbsp; &amp;nbsp; &amp;nbsp;- token: String&amp;nbsp; &amp;nbsp; &amp;nbsp; &amp;nbsp; &amp;nbsp;&lt;/span&gt;&lt;/div&gt;&lt;div&gt;&lt;span style=&quot;font-size: 22px;&quot;&gt;&amp;nbsp; &amp;nbsp; &amp;nbsp; - role: String&amp;nbsp; &amp;nbsp; &amp;nbsp; &amp;nbsp; &amp;nbsp;&amp;nbsp;&lt;/span&gt;&lt;/div&gt;&lt;div&gt;&lt;span style=&quot;font-size: 22px; background-color: transparent; color: light-dark(rgb(0, 0, 0), rgb(255, 255, 255));&quot;&gt;&amp;nbsp;- userId: Long&amp;nbsp;&lt;/span&gt;&lt;/div&gt;" style="text;strokeColor=none;fillColor=none;align=center;verticalAlign=top;spacingLeft=4;spacingRight=4;overflow=hidden;rotatable=0;points=[[0,0.5],[1,0.5]];portConstraint=eastwest;whiteSpace=wrap;html=1;" parent="2Fayb-u_bdMIBWR4WJhT-26" vertex="1">
          <mxGeometry y="40" width="270" height="100" as="geometry" />
        </mxCell>
        <mxCell id="2Fayb-u_bdMIBWR4WJhT-28" value="&lt;span style=&quot;font-size: 18px; font-weight: 400;&quot;&gt;JwtUtil&lt;/span&gt;" style="swimlane;fontStyle=1;align=center;verticalAlign=top;childLayout=stackLayout;horizontal=1;startSize=50;horizontalStack=0;resizeParent=1;resizeParentMax=0;resizeLast=0;collapsible=1;marginBottom=0;whiteSpace=wrap;html=1;" parent="1" vertex="1">
          <mxGeometry x="1060" y="1060" width="380" height="230" as="geometry" />
        </mxCell>
        <mxCell id="2Fayb-u_bdMIBWR4WJhT-61" style="edgeStyle=orthogonalEdgeStyle;rounded=0;orthogonalLoop=1;jettySize=auto;html=1;exitX=0;exitY=0.5;exitDx=0;exitDy=0;" parent="2Fayb-u_bdMIBWR4WJhT-28" source="2Fayb-u_bdMIBWR4WJhT-29" edge="1">
          <mxGeometry relative="1" as="geometry">
            <mxPoint x="-20" y="360" as="targetPoint" />
            <Array as="points">
              <mxPoint x="-20" y="140" />
            </Array>
          </mxGeometry>
        </mxCell>
        <mxCell id="2Fayb-u_bdMIBWR4WJhT-29" value="&lt;div&gt;&lt;span style=&quot;font-size: 22px;&quot;&gt;&amp;nbsp; &amp;nbsp; &amp;nbsp; &amp;nbsp;&lt;/span&gt;&lt;span style=&quot;background-color: transparent;&quot;&gt;&lt;font style=&quot;font-size: 20px;&quot;&gt;+generateToken(email,role,id):String&amp;nbsp;&lt;/font&gt;&lt;/span&gt;&lt;/div&gt;&lt;div&gt;&lt;font style=&quot;font-size: 20px;&quot;&gt;&amp;nbsp;+extractUsername(token):String&amp;nbsp; &amp;nbsp; &amp;nbsp;&amp;nbsp;&lt;/font&gt;&lt;/div&gt;&lt;div&gt;&lt;font style=&quot;font-size: 20px;&quot;&gt;&amp;nbsp;+extractRole(token):String&amp;nbsp; &amp;nbsp; &amp;nbsp; &amp;nbsp; &amp;nbsp;&amp;nbsp;&lt;/font&gt;&lt;/div&gt;&lt;div&gt;&lt;font style=&quot;font-size: 20px;&quot;&gt;&amp;nbsp;+extractUserId(token):Long&amp;nbsp; &amp;nbsp; &amp;nbsp; &amp;nbsp; &amp;nbsp;&amp;nbsp;&lt;/font&gt;&lt;/div&gt;&lt;div&gt;&lt;span style=&quot;background-color: transparent;&quot;&gt;&lt;font style=&quot;font-size: 20px;&quot;&gt;&amp;nbsp;+validateToken(token,email):boolean&lt;/font&gt;&lt;/span&gt;&lt;span style=&quot;font-size: 22px; background-color: transparent; color: light-dark(rgb(0, 0, 0), rgb(255, 255, 255));&quot;&gt;&amp;nbsp;&lt;/span&gt;&lt;/div&gt;" style="text;strokeColor=none;fillColor=none;align=center;verticalAlign=top;spacingLeft=4;spacingRight=4;overflow=hidden;rotatable=0;points=[[0,0.5],[1,0.5]];portConstraint=eastwest;whiteSpace=wrap;html=1;" parent="2Fayb-u_bdMIBWR4WJhT-28" vertex="1">
          <mxGeometry y="50" width="380" height="180" as="geometry" />
        </mxCell>
        <mxCell id="2Fayb-u_bdMIBWR4WJhT-58" style="edgeStyle=orthogonalEdgeStyle;rounded=0;orthogonalLoop=1;jettySize=auto;html=1;exitX=0.5;exitY=0;exitDx=0;exitDy=0;" parent="1" source="2Fayb-u_bdMIBWR4WJhT-30" target="2Fayb-u_bdMIBWR4WJhT-29" edge="1">
          <mxGeometry relative="1" as="geometry" />
        </mxCell>
        <mxCell id="2Fayb-u_bdMIBWR4WJhT-30" value="&lt;span style=&quot;font-size: 18px; font-weight: 400;&quot;&gt;JwtRequestFilter&lt;/span&gt;" style="swimlane;fontStyle=1;align=center;verticalAlign=top;childLayout=stackLayout;horizontal=1;startSize=40;horizontalStack=0;resizeParent=1;resizeParentMax=0;resizeLast=0;collapsible=1;marginBottom=0;whiteSpace=wrap;html=1;" parent="1" vertex="1">
          <mxGeometry x="1560" y="1350" width="270" height="90" as="geometry" />
        </mxCell>
        <mxCell id="2Fayb-u_bdMIBWR4WJhT-31" value="&lt;span style=&quot;font-size: 22px;&quot;&gt;+doFilterInternal()&amp;nbsp;&lt;/span&gt;" style="text;strokeColor=none;fillColor=none;align=center;verticalAlign=top;spacingLeft=4;spacingRight=4;overflow=hidden;rotatable=0;points=[[0,0.5],[1,0.5]];portConstraint=eastwest;whiteSpace=wrap;html=1;" parent="2Fayb-u_bdMIBWR4WJhT-30" vertex="1">
          <mxGeometry y="40" width="270" height="50" as="geometry" />
        </mxCell>
        <mxCell id="2Fayb-u_bdMIBWR4WJhT-60" style="edgeStyle=orthogonalEdgeStyle;rounded=0;orthogonalLoop=1;jettySize=auto;html=1;exitX=0.5;exitY=0;exitDx=0;exitDy=0;" parent="1" source="2Fayb-u_bdMIBWR4WJhT-34" target="2Fayb-u_bdMIBWR4WJhT-31" edge="1">
          <mxGeometry relative="1" as="geometry">
            <mxPoint x="1050" y="1750" as="sourcePoint" />
            <Array as="points">
              <mxPoint x="1040" y="1770" />
              <mxPoint x="1040" y="1415" />
            </Array>
          </mxGeometry>
        </mxCell>
        <mxCell id="2Fayb-u_bdMIBWR4WJhT-62" style="edgeStyle=orthogonalEdgeStyle;rounded=0;orthogonalLoop=1;jettySize=auto;html=1;exitX=0.5;exitY=0;exitDx=0;exitDy=0;entryX=0;entryY=0.5;entryDx=0;entryDy=0;" parent="1" source="2Fayb-u_bdMIBWR4WJhT-32" target="2Fayb-u_bdMIBWR4WJhT-18" edge="1">
          <mxGeometry relative="1" as="geometry" />
        </mxCell>
        <mxCell id="2Fayb-u_bdMIBWR4WJhT-32" value="&lt;span style=&quot;font-weight: 400;&quot;&gt;&lt;font style=&quot;font-size: 22px;&quot;&gt;CustomUserDetails (implements UserDetails)&lt;/font&gt;&lt;/span&gt;" style="swimlane;fontStyle=1;align=center;verticalAlign=top;childLayout=stackLayout;horizontal=1;startSize=50;horizontalStack=0;resizeParent=1;resizeParentMax=0;resizeLast=0;collapsible=1;marginBottom=0;whiteSpace=wrap;html=1;" parent="1" vertex="1">
          <mxGeometry x="60" y="1980" width="530" height="290" as="geometry" />
        </mxCell>
        <mxCell id="2Fayb-u_bdMIBWR4WJhT-33" value="&lt;div&gt;&lt;span style=&quot;font-size: 22px;&quot;&gt;+getAuthorities():Collection&amp;lt;GrantedAuthority&amp;gt;&amp;nbsp;&lt;/span&gt;&lt;span style=&quot;font-size: 22px; background-color: transparent; color: light-dark(rgb(0, 0, 0), rgb(255, 255, 255));&quot;&gt;&amp;nbsp;&lt;/span&gt;&lt;/div&gt;&lt;div&gt;&lt;span style=&quot;font-size: 22px; background-color: transparent; color: light-dark(rgb(0, 0, 0), rgb(255, 255, 255));&quot;&gt;+getPassword():String&amp;nbsp; &amp;nbsp; &amp;nbsp; &amp;nbsp; &amp;nbsp; &amp;nbsp; &amp;nbsp; &amp;nbsp; &amp;nbsp; &amp;nbsp; &amp;nbsp; &amp;nbsp; &amp;nbsp;&lt;/span&gt;&lt;/div&gt;&lt;div&gt;&lt;span style=&quot;font-size: 22px;&quot;&gt;&amp;nbsp;+getUsername():String&amp;nbsp; &amp;nbsp; &amp;nbsp; &amp;nbsp; &amp;nbsp; &amp;nbsp; &amp;nbsp; &amp;nbsp; &amp;nbsp; &amp;nbsp; &amp;nbsp; &amp;nbsp; &amp;nbsp;&lt;/span&gt;&lt;/div&gt;&lt;div&gt;&lt;span style=&quot;font-size: 22px;&quot;&gt;+isAccountNonExpired():boolean&amp;nbsp; &amp;nbsp; &amp;nbsp; &amp;nbsp; &amp;nbsp; &amp;nbsp; &amp;nbsp; &amp;nbsp;&amp;nbsp;&lt;/span&gt;&lt;/div&gt;&lt;div&gt;&lt;span style=&quot;font-size: 22px;&quot;&gt;+isAccountNonLocked():boolean&amp;nbsp; &amp;nbsp; &amp;nbsp; &amp;nbsp; &amp;nbsp; &amp;nbsp; &amp;nbsp; &amp;nbsp; &amp;nbsp;&lt;/span&gt;&lt;/div&gt;&lt;div&gt;&lt;span style=&quot;font-size: 22px;&quot;&gt;+isCredentialsNonExpired():boolean&lt;/span&gt;&lt;/div&gt;&lt;div style=&quot;&quot;&gt;&lt;span style=&quot;font-size: 22px; background-color: transparent; color: light-dark(rgb(0, 0, 0), rgb(255, 255, 255));&quot;&gt;+isEnabled():boolean&lt;/span&gt;&lt;/div&gt;" style="text;strokeColor=none;fillColor=none;align=left;verticalAlign=top;spacingLeft=4;spacingRight=4;overflow=hidden;rotatable=0;points=[[0,0.5],[1,0.5]];portConstraint=eastwest;whiteSpace=wrap;html=1;" parent="2Fayb-u_bdMIBWR4WJhT-32" vertex="1">
          <mxGeometry y="50" width="530" height="240" as="geometry" />
        </mxCell>
        <mxCell id="2Fayb-u_bdMIBWR4WJhT-34" value="&lt;span style=&quot;font-size: 22px; font-weight: 400;&quot;&gt;CustomUserDetailsService (implements UserDetailsService)&lt;/span&gt;" style="swimlane;fontStyle=1;align=center;verticalAlign=top;childLayout=stackLayout;horizontal=1;startSize=50;horizontalStack=0;resizeParent=1;resizeParentMax=0;resizeLast=0;collapsible=1;marginBottom=0;whiteSpace=wrap;html=1;" parent="1" vertex="1">
          <mxGeometry x="650" y="1770" width="790" height="100" as="geometry" />
        </mxCell>
        <mxCell id="2Fayb-u_bdMIBWR4WJhT-35" value="&lt;span style=&quot;font-size: 22px;&quot;&gt;+loadUserByUsername(email):UserDetails&amp;nbsp;&lt;/span&gt;" style="text;strokeColor=none;fillColor=none;align=center;verticalAlign=top;spacingLeft=4;spacingRight=4;overflow=hidden;rotatable=0;points=[[0,0.5],[1,0.5]];portConstraint=eastwest;whiteSpace=wrap;html=1;" parent="2Fayb-u_bdMIBWR4WJhT-34" vertex="1">
          <mxGeometry y="50" width="790" height="50" as="geometry" />
        </mxCell>
        <mxCell id="2Fayb-u_bdMIBWR4WJhT-40" value="&lt;span style=&quot;font-size: 22px; font-weight: 400;&quot;&gt;GlobalExceptionHandler&amp;nbsp;&lt;/span&gt;" style="swimlane;fontStyle=1;align=center;verticalAlign=top;childLayout=stackLayout;horizontal=1;startSize=50;horizontalStack=0;resizeParent=1;resizeParentMax=0;resizeLast=0;collapsible=1;marginBottom=0;whiteSpace=wrap;html=1;" parent="1" vertex="1">
          <mxGeometry x="1030" y="2120" width="670" height="170" as="geometry" />
        </mxCell>
        <mxCell id="2Fayb-u_bdMIBWR4WJhT-41" value="&lt;div&gt;&lt;span style=&quot;font-size: 22px;&quot;&gt;+handleDuplicateResourceException()&amp;nbsp;&lt;/span&gt;&lt;/div&gt;&lt;div&gt;&lt;span style=&quot;font-size: 22px;&quot;&gt;+handleResourceNotFoundException()&amp;nbsp;&amp;nbsp;&lt;/span&gt;&lt;/div&gt;&lt;div&gt;&lt;span style=&quot;font-size: 22px;&quot;&gt;&amp;nbsp;+handleGenericException()&lt;/span&gt;&lt;/div&gt;" style="text;strokeColor=none;fillColor=none;align=center;verticalAlign=top;spacingLeft=4;spacingRight=4;overflow=hidden;rotatable=0;points=[[0,0.5],[1,0.5]];portConstraint=eastwest;whiteSpace=wrap;html=1;" parent="2Fayb-u_bdMIBWR4WJhT-40" vertex="1">
          <mxGeometry y="50" width="670" height="120" as="geometry" />
        </mxCell>
        <mxCell id="2Fayb-u_bdMIBWR4WJhT-44" style="edgeStyle=orthogonalEdgeStyle;rounded=0;orthogonalLoop=1;jettySize=auto;html=1;entryX=1.002;entryY=0.246;entryDx=0;entryDy=0;entryPerimeter=0;" parent="1" source="2Fayb-u_bdMIBWR4WJhT-11" target="2Fayb-u_bdMIBWR4WJhT-10" edge="1">
          <mxGeometry relative="1" as="geometry" />
        </mxCell>
        <mxCell id="2Fayb-u_bdMIBWR4WJhT-45" style="edgeStyle=orthogonalEdgeStyle;rounded=0;orthogonalLoop=1;jettySize=auto;html=1;entryX=0.5;entryY=0;entryDx=0;entryDy=0;" parent="1" source="2Fayb-u_bdMIBWR4WJhT-16" target="2Fayb-u_bdMIBWR4WJhT-19" edge="1">
          <mxGeometry relative="1" as="geometry" />
        </mxCell>
        <mxCell id="2Fayb-u_bdMIBWR4WJhT-48" style="edgeStyle=orthogonalEdgeStyle;rounded=0;orthogonalLoop=1;jettySize=auto;html=1;entryX=0.5;entryY=0;entryDx=0;entryDy=0;" parent="1" source="2Fayb-u_bdMIBWR4WJhT-20" target="2Fayb-u_bdMIBWR4WJhT-22" edge="1">
          <mxGeometry relative="1" as="geometry" />
        </mxCell>
        <mxCell id="2Fayb-u_bdMIBWR4WJhT-49" value="&lt;span style=&quot;font-size: 18px; font-weight: 400;&quot;&gt;UserController&lt;/span&gt;" style="swimlane;fontStyle=1;align=center;verticalAlign=top;childLayout=stackLayout;horizontal=1;startSize=40;horizontalStack=0;resizeParent=1;resizeParentMax=0;resizeLast=0;collapsible=1;marginBottom=0;whiteSpace=wrap;html=1;" parent="1" vertex="1">
          <mxGeometry x="1230" y="340" width="360" height="160" as="geometry" />
        </mxCell>
        <mxCell id="2Fayb-u_bdMIBWR4WJhT-50" value="&lt;div style=&quot;&quot;&gt;&lt;div&gt;&amp;nbsp;&lt;font style=&quot;font-size: 18px;&quot;&gt;+registerUser(userDTO):UserDTO&amp;nbsp;&lt;/font&gt;&lt;/div&gt;&lt;div&gt;&lt;font style=&quot;font-size: 18px;&quot;&gt;&amp;nbsp;+loginUser(authRequest):AuthResponse&amp;nbsp;&lt;/font&gt;&lt;/div&gt;&lt;div&gt;&lt;font style=&quot;font-size: 18px;&quot;&gt;&amp;nbsp;+getProfile(email):UserDTO&amp;nbsp; &amp;nbsp; &amp;nbsp; &amp;nbsp; &amp;nbsp;&amp;nbsp;&lt;/font&gt;&lt;/div&gt;&lt;div&gt;&lt;span style=&quot;background-color: transparent; color: light-dark(rgb(0, 0, 0), rgb(255, 255, 255));&quot;&gt;&lt;font style=&quot;font-size: 18px;&quot;&gt;+updateUser(id, userDTO):UserDTO&lt;/font&gt;&lt;/span&gt;&lt;span style=&quot;font-size: 16px; background-color: transparent; color: light-dark(rgb(0, 0, 0), rgb(255, 255, 255)); font-family: Verdana;&quot;&gt;&amp;nbsp;&amp;nbsp;&lt;/span&gt;&lt;/div&gt;&lt;/div&gt;" style="text;strokeColor=none;fillColor=none;align=center;verticalAlign=top;spacingLeft=4;spacingRight=4;overflow=hidden;rotatable=0;points=[[0,0.5],[1,0.5]];portConstraint=eastwest;whiteSpace=wrap;html=1;" parent="2Fayb-u_bdMIBWR4WJhT-49" vertex="1">
          <mxGeometry y="40" width="360" height="120" as="geometry" />
        </mxCell>
        <mxCell id="2Fayb-u_bdMIBWR4WJhT-52" style="edgeStyle=orthogonalEdgeStyle;rounded=0;orthogonalLoop=1;jettySize=auto;html=1;entryX=0.5;entryY=0;entryDx=0;entryDy=0;" parent="1" source="2Fayb-u_bdMIBWR4WJhT-50" target="2Fayb-u_bdMIBWR4WJhT-19" edge="1">
          <mxGeometry relative="1" as="geometry" />
        </mxCell>
        <mxCell id="2Fayb-u_bdMIBWR4WJhT-53" style="edgeStyle=orthogonalEdgeStyle;rounded=0;orthogonalLoop=1;jettySize=auto;html=1;exitX=0;exitY=0.5;exitDx=0;exitDy=0;entryX=0.5;entryY=0;entryDx=0;entryDy=0;" parent="1" source="2Fayb-u_bdMIBWR4WJhT-23" target="2Fayb-u_bdMIBWR4WJhT-17" edge="1">
          <mxGeometry relative="1" as="geometry" />
        </mxCell>
        <mxCell id="2Fayb-u_bdMIBWR4WJhT-54" style="edgeStyle=orthogonalEdgeStyle;rounded=0;orthogonalLoop=1;jettySize=auto;html=1;entryX=0.5;entryY=0;entryDx=0;entryDy=0;" parent="1" source="2Fayb-u_bdMIBWR4WJhT-23" target="2Fayb-u_bdMIBWR4WJhT-28" edge="1">
          <mxGeometry relative="1" as="geometry" />
        </mxCell>
        <mxCell id="2Fayb-u_bdMIBWR4WJhT-59" value="" style="group" parent="1" vertex="1" connectable="0">
          <mxGeometry x="795" y="2400" width="910" height="110" as="geometry" />
        </mxCell>
        <mxCell id="2Fayb-u_bdMIBWR4WJhT-36" value="&lt;span style=&quot;font-size: 22px; font-weight: 400;&quot;&gt;DuplicateResourceException&amp;nbsp;&lt;/span&gt;" style="swimlane;fontStyle=1;align=center;verticalAlign=top;childLayout=stackLayout;horizontal=1;startSize=50;horizontalStack=0;resizeParent=1;resizeParentMax=0;resizeLast=0;collapsible=1;marginBottom=0;whiteSpace=wrap;html=1;" parent="2Fayb-u_bdMIBWR4WJhT-59" vertex="1">
          <mxGeometry y="10" width="390" height="100" as="geometry" />
        </mxCell>
        <mxCell id="2Fayb-u_bdMIBWR4WJhT-37" value="&lt;span style=&quot;font-size: 22px;&quot;&gt;(extends RuntimeException)&lt;/span&gt;" style="text;strokeColor=none;fillColor=none;align=center;verticalAlign=top;spacingLeft=4;spacingRight=4;overflow=hidden;rotatable=0;points=[[0,0.5],[1,0.5]];portConstraint=eastwest;whiteSpace=wrap;html=1;" parent="2Fayb-u_bdMIBWR4WJhT-36" vertex="1">
          <mxGeometry y="50" width="390" height="50" as="geometry" />
        </mxCell>
        <mxCell id="2Fayb-u_bdMIBWR4WJhT-38" value="&lt;span style=&quot;font-size: 22px; font-weight: 400;&quot;&gt;ResourceNotFoundException&amp;nbsp;&amp;nbsp;&lt;/span&gt;" style="swimlane;fontStyle=1;align=center;verticalAlign=top;childLayout=stackLayout;horizontal=1;startSize=50;horizontalStack=0;resizeParent=1;resizeParentMax=0;resizeLast=0;collapsible=1;marginBottom=0;whiteSpace=wrap;html=1;" parent="2Fayb-u_bdMIBWR4WJhT-59" vertex="1">
          <mxGeometry x="470" width="440" height="100" as="geometry" />
        </mxCell>
        <mxCell id="2Fayb-u_bdMIBWR4WJhT-39" value="&lt;span style=&quot;font-size: 22px;&quot;&gt;(extends RuntimeException)&lt;/span&gt;" style="text;strokeColor=none;fillColor=none;align=center;verticalAlign=top;spacingLeft=4;spacingRight=4;overflow=hidden;rotatable=0;points=[[0,0.5],[1,0.5]];portConstraint=eastwest;whiteSpace=wrap;html=1;" parent="2Fayb-u_bdMIBWR4WJhT-38" vertex="1">
          <mxGeometry y="50" width="440" height="50" as="geometry" />
        </mxCell>
        <mxCell id="2Fayb-u_bdMIBWR4WJhT-55" style="edgeStyle=orthogonalEdgeStyle;rounded=0;orthogonalLoop=1;jettySize=auto;html=1;exitX=0.5;exitY=0;exitDx=0;exitDy=0;entryX=0.453;entryY=1;entryDx=0;entryDy=0;entryPerimeter=0;" parent="2Fayb-u_bdMIBWR4WJhT-59" source="2Fayb-u_bdMIBWR4WJhT-36" target="2Fayb-u_bdMIBWR4WJhT-41" edge="1">
          <mxGeometry relative="1" as="geometry" />
        </mxCell>
        <mxCell id="2Fayb-u_bdMIBWR4WJhT-57" style="edgeStyle=orthogonalEdgeStyle;rounded=0;orthogonalLoop=1;jettySize=auto;html=1;exitX=0.5;exitY=0;exitDx=0;exitDy=0;entryX=0.449;entryY=1.022;entryDx=0;entryDy=0;entryPerimeter=0;" parent="2Fayb-u_bdMIBWR4WJhT-59" source="2Fayb-u_bdMIBWR4WJhT-38" target="2Fayb-u_bdMIBWR4WJhT-41" edge="1">
          <mxGeometry relative="1" as="geometry" />
        </mxCell>
        <mxCell id="2Fayb-u_bdMIBWR4WJhT-63" style="edgeStyle=orthogonalEdgeStyle;rounded=0;orthogonalLoop=1;jettySize=auto;html=1;exitX=0;exitY=0.5;exitDx=0;exitDy=0;" parent="1" source="2Fayb-u_bdMIBWR4WJhT-35" target="2Fayb-u_bdMIBWR4WJhT-33" edge="1">
          <mxGeometry relative="1" as="geometry" />
        </mxCell>
        <mxCell id="2Fayb-u_bdMIBWR4WJhT-65" style="edgeStyle=orthogonalEdgeStyle;rounded=0;orthogonalLoop=1;jettySize=auto;html=1;entryX=1.028;entryY=0.74;entryDx=0;entryDy=0;entryPerimeter=0;" parent="1" source="2Fayb-u_bdMIBWR4WJhT-25" target="2Fayb-u_bdMIBWR4WJhT-50" edge="1">
          <mxGeometry relative="1" as="geometry" />
        </mxCell>
        <mxCell id="2Fayb-u_bdMIBWR4WJhT-67" style="edgeStyle=orthogonalEdgeStyle;rounded=0;orthogonalLoop=1;jettySize=auto;html=1;exitX=1;exitY=0.5;exitDx=0;exitDy=0;" parent="1" source="2Fayb-u_bdMIBWR4WJhT-50" target="2Fayb-u_bdMIBWR4WJhT-27" edge="1">
          <mxGeometry relative="1" as="geometry" />
        </mxCell>
      </root>
    </mxGraphModel>
  </diagram>
  <diagram id="Sbic4XWo8nvbee1Wmzzu" name="Page-2">
    <mxGraphModel dx="280" dy="663" grid="1" gridSize="10" guides="1" tooltips="1" connect="1" arrows="1" fold="1" page="1" pageScale="1" pageWidth="850" pageHeight="1100" math="0" shadow="0">
      <root>
        <mxCell id="0" />
        <mxCell id="1" parent="0" />
        <mxCell id="VwtEPD5puBZqtLKLZsXU-1" value="Actor" style="shape=umlActor;verticalLabelPosition=bottom;verticalAlign=top;html=1;" vertex="1" parent="1">
          <mxGeometry x="60" y="140" width="30" height="60" as="geometry" />
        </mxCell>
        <mxCell id="VwtEPD5puBZqtLKLZsXU-2" value="Actor" style="shape=umlActor;verticalLabelPosition=bottom;verticalAlign=top;html=1;" vertex="1" parent="1">
          <mxGeometry x="60" y="290" width="30" height="60" as="geometry" />
        </mxCell>
        <mxCell id="VwtEPD5puBZqtLKLZsXU-3" value="Actor" style="shape=umlActor;verticalLabelPosition=bottom;verticalAlign=top;html=1;" vertex="1" parent="1">
          <mxGeometry x="60" y="430" width="30" height="60" as="geometry" />
        </mxCell>
        <mxCell id="VwtEPD5puBZqtLKLZsXU-4" value="Object" style="html=1;whiteSpace=wrap;" vertex="1" parent="1">
          <mxGeometry x="150" y="270" width="110" height="270" as="geometry" />
        </mxCell>
        <mxCell id="VwtEPD5puBZqtLKLZsXU-5" value="Actor" style="shape=umlActor;verticalLabelPosition=bottom;verticalAlign=top;html=1;" vertex="1" parent="1">
          <mxGeometry x="70" y="540" width="30" height="60" as="geometry" />
        </mxCell>
      </root>
    </mxGraphModel>
  </diagram>
</mxfile>
